<svg width="84" height="84" viewBox="0 0 84 84" fill="none" xmlns="http://www.w3.org/2000/svg">
<circle cx="42" cy="42" r="41.5" fill="white" stroke="white"/>
<g clip-path="url(#clip0_1884_202)">
<path d="M41.6588 48.1702C41.5724 48.1703 41.4868 48.1536 41.4068 48.1211L27.454 42.4364C27.2891 42.3696 27.1575 42.24 27.0882 42.0761C27.0189 41.9122 27.0174 41.7275 27.0843 41.5626C27.1511 41.3977 27.2807 41.2661 27.4446 41.1968C27.6084 41.1274 27.7931 41.126 27.958 41.1928L41.6544 46.7728L55.2439 41.0619C55.4063 41.0012 55.586 41.0059 55.7452 41.0748C55.9043 41.1438 56.0306 41.2717 56.0974 41.4317C56.1643 41.5917 56.1667 41.7714 56.1039 41.9331C56.0412 42.0948 55.9183 42.2259 55.7609 42.299L41.9173 48.1179C41.8355 48.1523 41.7476 48.1702 41.6588 48.1702Z" fill="black"/>
<path d="M41.6588 48.1702C41.5724 48.1703 41.4868 48.1536 41.4068 48.1211L27.454 42.4364C27.2891 42.3696 27.1575 42.24 27.0882 42.0761C27.0189 41.9122 27.0174 41.7275 27.0843 41.5626C27.1511 41.3977 27.2807 41.2661 27.4446 41.1968C27.6084 41.1274 27.7931 41.126 27.958 41.1928L41.6544 46.7728L55.2439 41.0619C55.4063 41.0012 55.586 41.0059 55.7452 41.0748C55.9043 41.1438 56.0306 41.2717 56.0974 41.4317C56.1643 41.5917 56.1667 41.7714 56.1039 41.9331C56.0412 42.0948 55.9183 42.2259 55.7609 42.299L41.9173 48.1179C41.8355 48.1523 41.7476 48.1702 41.6588 48.1702Z" fill="black"/>
<path d="M30.0353 48.7637L40.9062 63.3611V54.8728L30.0353 48.7637ZM41.576 66C41.4704 66.0007 41.3661 65.9767 41.2714 65.9299C41.1767 65.8831 41.0942 65.8149 41.0306 65.7306L27.128 47.0608C27.0395 46.9431 26.9961 46.7976 27.0057 46.6507C27.0153 46.5038 27.0773 46.3652 27.1804 46.26C27.288 46.1529 27.4275 46.0838 27.5779 46.0631C27.7283 46.0425 27.8814 46.0714 28.0138 46.1455L41.9164 53.964C42.0143 54.0179 42.0962 54.0967 42.1537 54.1926C42.2112 54.2884 42.2422 54.3978 42.2437 54.5095V65.3597C42.2418 65.4976 42.1955 65.6313 42.1116 65.7408C42.0276 65.8503 41.9106 65.9297 41.7778 65.9673C41.7121 65.9876 41.6437 65.9979 41.5749 65.9979" fill="black"/>
<path d="M30.0353 48.7635L40.9062 63.3609V54.8726L30.0353 48.7635ZM41.576 65.9999C41.3578 65.9999 40.9967 65.9028 40.8691 65.7304L27.1236 47.0628C27.0351 46.9451 26.9917 46.7996 27.0013 46.6527C27.0109 46.5058 27.0729 46.3672 27.176 46.262C27.2836 46.1536 27.4239 46.0834 27.5752 46.0623C27.7265 46.0413 27.8806 46.0704 28.0138 46.1453L41.9164 53.9639C42.0143 54.0177 42.0962 54.0966 42.1537 54.1924C42.2112 54.2882 42.2422 54.3976 42.2436 54.5093V65.3595C42.2418 65.4974 42.1955 65.6311 42.1115 65.7406C42.0276 65.8501 41.9105 65.9295 41.7778 65.9671C41.7125 65.988 41.6445 65.999 41.576 65.9999Z" fill="black"/>
<path d="M42.1468 54.865V63.3512L53.0318 48.7505L42.1468 54.865ZM41.4769 65.9923C41.4078 65.9923 41.3391 65.982 41.2729 65.9618C41.1405 65.9241 41.0237 65.8447 40.9398 65.7355C40.8559 65.6263 40.8094 65.4929 40.8071 65.3552V54.5007C40.8089 54.389 40.8401 54.2798 40.8975 54.184C40.955 54.0882 41.0367 54.0093 41.1344 53.9552L55.0533 46.1378C55.1861 46.0639 55.3394 46.0354 55.4898 46.0567C55.6403 46.0779 55.7797 46.1478 55.8868 46.2556C55.9899 46.3607 56.0518 46.4993 56.0614 46.6462C56.071 46.7932 56.0276 46.9387 55.9391 47.0563L42.0224 65.7196C41.9587 65.8038 41.8762 65.8719 41.7815 65.9185C41.6868 65.9651 41.5825 65.9889 41.4769 65.988" fill="black"/>
<path d="M42.1468 54.865V63.3512L53.0318 48.7505L42.1468 54.865ZM41.4769 65.9923C41.4078 65.9923 41.3391 65.982 41.2729 65.9618C41.1405 65.9241 41.0237 65.8447 40.9398 65.7355C40.8559 65.6263 40.8094 65.4929 40.8071 65.3552V54.5007C40.8089 54.389 40.8401 54.2798 40.8975 54.184C40.955 54.0882 41.0367 54.0093 41.1344 53.9552L55.0533 46.1378C55.1861 46.0639 55.3394 46.0354 55.4898 46.0567C55.6403 46.0779 55.7797 46.1478 55.8868 46.2556C55.9899 46.3607 56.0518 46.4993 56.0614 46.6462C56.071 46.7932 56.0276 46.9387 55.9391 47.0563L42.0224 65.8799C41.8959 66.0523 41.6897 65.9879 41.4769 65.9879V65.9923Z" fill="black"/>
<path d="M33.8894 43.874L27.453 46.0907C27.1039 46.2107 27.0788 46.5926 27.1988 46.9427C27.2948 47.2209 27.393 47.3955 27.6712 47.3955C27.7454 47.3954 27.8191 47.3832 27.8894 47.3595L35.0436 44.8951C34.632 44.5864 34.246 44.2449 33.8894 43.874Z" fill="black"/>
<path d="M55.6194 46.0828L50.0852 44.1191C49.6794 44.4464 49.2692 44.7846 48.8438 45.101L55.171 47.3493C55.5179 47.4726 55.7405 47.2904 55.8648 46.9413C55.9892 46.5922 55.9685 46.2071 55.6194 46.0828Z" fill="black"/>
<path d="M28.6813 41.4934L40.9387 46.5737V21.1087L28.6813 41.4934ZM41.6086 48.2483C41.5205 48.2486 41.4333 48.2312 41.3522 48.197L27.4497 42.4359C27.3605 42.3988 27.2805 42.3429 27.2149 42.272C27.1493 42.2012 27.0998 42.117 27.0697 42.0253C27.0396 41.9336 27.0296 41.8365 27.0403 41.7405C27.0511 41.6446 27.0825 41.5521 27.1322 41.4694L41.0347 18.3497C41.11 18.224 41.2244 18.1265 41.3605 18.0721C41.4966 18.0178 41.6467 18.0096 41.7879 18.0489C41.929 18.0882 42.0534 18.1727 42.1418 18.2896C42.2302 18.4064 42.2778 18.549 42.2773 18.6956V47.5774C42.2774 47.6653 42.2603 47.7525 42.2267 47.8338C42.1932 47.9151 42.144 47.989 42.0819 48.0513C42.0198 48.1136 41.946 48.1631 41.8648 48.1969C41.7836 48.2307 41.6965 48.2482 41.6086 48.2483Z" fill="black"/>
<path d="M42.2532 20.9716V46.4923L54.527 41.365L42.2532 20.9716ZM41.5703 48.2443C41.4405 48.2443 41.3238 48.1352 41.2125 48.0599C41.1205 47.9987 41.0451 47.9156 40.993 47.8182C40.9408 47.7207 40.9135 47.6119 40.9136 47.5014V19.0156C40.9136 18.7145 41.1143 18.133 41.4034 18.0523C41.6925 17.9716 42.0012 17.9563 42.1561 18.2138L56.0772 41.3334C56.1268 41.4161 56.1581 41.5084 56.169 41.6042C56.1799 41.7 56.1702 41.797 56.1405 41.8887C56.1107 41.9803 56.0615 42.0644 55.9961 42.1352C55.9308 42.206 55.8509 42.2618 55.7619 42.2989L41.9718 48.1614C41.8445 48.2144 41.7081 48.2418 41.5703 48.2421" fill="black"/>
<path d="M46.3107 44.1498C46.7542 44.1498 47.1136 43.7903 47.1136 43.3469C47.1136 42.9034 46.7542 42.5439 46.3107 42.5439C45.8673 42.5439 45.5078 42.9034 45.5078 43.3469C45.5078 43.7903 45.8673 44.1498 46.3107 44.1498Z" fill="black"/>
<path d="M43.82 43.3343C44.2634 43.3343 44.6229 42.9749 44.6229 42.5314C44.6229 42.088 44.2634 41.7285 43.82 41.7285C43.3766 41.7285 43.0171 42.088 43.0171 42.5314C43.0171 42.9749 43.3766 43.3343 43.82 43.3343Z" fill="black"/>
<path d="M36.9953 44.1498C37.4387 44.1498 37.7982 43.7903 37.7982 43.3469C37.7982 42.9034 37.4387 42.5439 36.9953 42.5439C36.5519 42.5439 36.1924 42.9034 36.1924 43.3469C36.1924 43.7903 36.5519 44.1498 36.9953 44.1498Z" fill="black"/>
<path d="M39.3996 43.3343C39.843 43.3343 40.2025 42.9749 40.2025 42.5314C40.2025 42.088 39.843 41.7285 39.3996 41.7285C38.9562 41.7285 38.5967 42.088 38.5967 42.5314C38.5967 42.9749 38.9562 43.3343 39.3996 43.3343Z" fill="black"/>
<path d="M39.3996 38.3597C39.843 38.3597 40.2025 38.0003 40.2025 37.5568C40.2025 37.1134 39.843 36.7539 39.3996 36.7539C38.9562 36.7539 38.5967 37.1134 38.5967 37.5568C38.5967 38.0003 38.9562 38.3597 39.3996 38.3597Z" fill="black"/>
<path d="M36.5886 39.4574C37.032 39.4574 37.3915 39.0979 37.3915 38.6545C37.3915 38.211 37.032 37.8516 36.5886 37.8516C36.1451 37.8516 35.7856 38.211 35.7856 38.6545C35.7856 39.0979 36.1451 39.4574 36.5886 39.4574Z" fill="black"/>
<path d="M33.777 40.556C34.2205 40.556 34.5799 40.1965 34.5799 39.7531C34.5799 39.3097 34.2205 38.9502 33.777 38.9502C33.3336 38.9502 32.9741 39.3097 32.9741 39.7531C32.9741 40.1965 33.3336 40.556 33.777 40.556Z" fill="black"/>
<path d="M30.966 41.6527C31.4094 41.6527 31.7689 41.2932 31.7689 40.8498C31.7689 40.4063 31.4094 40.0469 30.966 40.0469C30.5226 40.0469 30.1631 40.4063 30.1631 40.8498C30.1631 41.2932 30.5226 41.6527 30.966 41.6527Z" fill="black"/>
<path d="M43.82 38.3597C44.2634 38.3597 44.6229 38.0003 44.6229 37.5568C44.6229 37.1134 44.2634 36.7539 43.82 36.7539C43.3766 36.7539 43.0171 37.1134 43.0171 37.5568C43.0171 38.0003 43.3766 38.3597 43.82 38.3597Z" fill="black"/>
<path d="M46.6052 39.4574C47.0486 39.4574 47.4081 39.0979 47.4081 38.6545C47.4081 38.211 47.0486 37.8516 46.6052 37.8516C46.1617 37.8516 45.8022 38.211 45.8022 38.6545C45.8022 39.0979 46.1617 39.4574 46.6052 39.4574Z" fill="black"/>
<path d="M49.3903 40.556C49.8337 40.556 50.1932 40.1965 50.1932 39.7531C50.1932 39.3097 49.8337 38.9502 49.3903 38.9502C48.9469 38.9502 48.5874 39.3097 48.5874 39.7531C48.5874 40.1965 48.9469 40.556 49.3903 40.556Z" fill="black"/>
<path d="M52.1764 41.6527C52.6199 41.6527 52.9794 41.2932 52.9794 40.8498C52.9794 40.4063 52.6199 40.0469 52.1764 40.0469C51.733 40.0469 51.3735 40.4063 51.3735 40.8498C51.3735 41.2932 51.733 41.6527 52.1764 41.6527Z" fill="black"/>
</g>
<defs>
<clipPath id="clip0_1884_202">
<rect width="29.2364" height="48" fill="white" transform="translate(27 18)"/>
</clipPath>
</defs>
</svg>
